<svg id="visual" viewBox="0 0 900 600" width="900" height="600" xmlns="http://www.w3.org/2000/svg" xmlns:xlink="http://www.w3.org/1999/xlink" version="1.1"><rect x="0" y="0" width="900" height="600" fill="#11111b"></rect><path d="M0 176L21.5 174.3C43 172.7 86 169.3 128.8 171.5C171.7 173.7 214.3 181.3 257.2 186C300 190.7 343 192.3 385.8 185.8C428.7 179.3 471.3 164.7 514.2 166.8C557 169 600 188 642.8 203C685.7 218 728.3 229 771.2 224.3C814 219.7 857 199.3 878.5 189.2L900 179L900 0L878.5 0C857 0 814 0 771.2 0C728.3 0 685.7 0 642.8 0C600 0 557 0 514.2 0C471.3 0 428.7 0 385.8 0C343 0 300 0 257.2 0C214.3 0 171.7 0 128.8 0C86 0 43 0 21.5 0L0 0Z" fill="#dbb5fe"></path><path d="M0 203L21.5 191C43 179 86 155 128.8 150.2C171.7 145.3 214.3 159.7 257.2 160C300 160.3 343 146.7 385.8 147.3C428.7 148 471.3 163 514.2 173C557 183 600 188 642.8 178C685.7 168 728.3 143 771.2 138.3C814 133.7 857 149.3 878.5 157.2L900 165L900 0L878.5 0C857 0 814 0 771.2 0C728.3 0 685.7 0 642.8 0C600 0 557 0 514.2 0C471.3 0 428.7 0 385.8 0C343 0 300 0 257.2 0C214.3 0 171.7 0 128.8 0C86 0 43 0 21.5 0L0 0Z" fill="#bc99e4"></path><path d="M0 114L21.5 114.2C43 114.3 86 114.7 128.8 121C171.7 127.3 214.3 139.7 257.2 144.2C300 148.7 343 145.3 385.8 141.2C428.7 137 471.3 132 514.2 131.3C557 130.7 600 134.3 642.8 139.5C685.7 144.7 728.3 151.3 771.2 145.8C814 140.3 857 122.7 878.5 113.8L900 105L900 0L878.5 0C857 0 814 0 771.2 0C728.3 0 685.7 0 642.8 0C600 0 557 0 514.2 0C471.3 0 428.7 0 385.8 0C343 0 300 0 257.2 0C214.3 0 171.7 0 128.8 0C86 0 43 0 21.5 0L0 0Z" fill="#9e7eca"></path><path d="M0 85L21.5 82.3C43 79.7 86 74.3 128.8 79.7C171.7 85 214.3 101 257.2 108.7C300 116.3 343 115.7 385.8 114C428.7 112.3 471.3 109.7 514.2 104.5C557 99.3 600 91.7 642.8 86.2C685.7 80.7 728.3 77.3 771.2 75.3C814 73.3 857 72.7 878.5 72.3L900 72L900 0L878.5 0C857 0 814 0 771.2 0C728.3 0 685.7 0 642.8 0C600 0 557 0 514.2 0C471.3 0 428.7 0 385.8 0C343 0 300 0 257.2 0C214.3 0 171.7 0 128.8 0C86 0 43 0 21.5 0L0 0Z" fill="#8064b1"></path><path d="M0 50L21.5 49C43 48 86 46 128.8 41.7C171.7 37.3 214.3 30.7 257.2 29C300 27.3 343 30.7 385.8 36.8C428.7 43 471.3 52 514.2 51.5C557 51 600 41 642.8 42.2C685.7 43.3 728.3 55.7 771.2 55.2C814 54.7 857 41.3 878.5 34.7L900 28L900 0L878.5 0C857 0 814 0 771.2 0C728.3 0 685.7 0 642.8 0C600 0 557 0 514.2 0C471.3 0 428.7 0 385.8 0C343 0 300 0 257.2 0C214.3 0 171.7 0 128.8 0C86 0 43 0 21.5 0L0 0Z" fill="#624b99"></path></svg>
